<?xml version="1.0" encoding="utf-8"?>
<!-- Generator: Adobe Illustrator 16.0.3, SVG Export Plug-In . SVG Version: 6.00 Build 0)  -->
<!DOCTYPE svg PUBLIC "-//W3C//DTD SVG 1.1//EN" "http://www.w3.org/Graphics/SVG/1.1/DTD/svg11.dtd">
<svg xmlns="http://www.w3.org/2000/svg" xmlns:xlink="http://www.w3.org/1999/xlink" version="1.1" id="Warstwa_1" x="0px" y="0px" width="650px" height="300px" viewBox="0 0 650 300" xml:space="preserve">
<polyline fill="#00B4D1" points="0,300 0,0 650,0 650,300 "/>
<g>
	<g>
		<path fill="#414042" d="M329.662,83.825c-0.771,0-1.395-0.624-1.395-1.392v-9.022c0-6.259,5.096-11.353,11.357-11.353    c0.77,0,1.393,0.623,1.393,1.392c0,0.769-0.623,1.392-1.393,1.392c-4.727,0-8.571,3.846-8.571,8.569v9.022    C331.053,83.201,330.43,83.825,329.662,83.825z"/>
	</g>
	<g>
		<path fill="#414042" d="M350.313,83.825c-0.77,0-1.392-0.624-1.392-1.392v-9.022c0-4.723-3.844-8.569-8.569-8.569    c-0.768,0-1.392-0.622-1.392-1.392c0-0.77,0.622-1.392,1.392-1.392c6.263,0,11.354,5.094,11.354,11.353v9.021    C351.706,83.201,351.081,83.825,350.313,83.825z"/>
	</g>
	<path fill="#FFAA2E" d="M354.817,104.192c0,0.62-0.491,1.101-1.097,1.101h-26.739c-0.61,0-1.106-0.483-1.106-1.101V81.704   c0-0.62,0.496-1.106,1.106-1.106h26.739c0.604,0,1.097,0.489,1.097,1.106V104.192z"/>
	<g>
		<path fill="#414042" d="M353.72,106.688h-26.739c-1.379,0-2.502-1.119-2.502-2.496V81.704c0-1.378,1.123-2.5,2.502-2.5h26.739    c1.373,0,2.488,1.122,2.488,2.5v22.488C356.208,105.569,355.093,106.688,353.72,106.688z M327.266,103.902h26.157V81.989h-26.157    V103.902z"/>
	</g>
	<g>
		<path fill="#414042" d="M340.347,96.803c-0.771,0-1.393-0.624-1.393-1.394v-4.918c0-0.767,0.622-1.392,1.393-1.392    c0.77,0,1.394,0.623,1.394,1.392v4.918C341.74,96.178,341.116,96.803,340.347,96.803z"/>
	</g>
</g>
<g>
	<path fill="#FFFFFF" d="M479.541,235.736c0,0.617-0.481,1.118-1.075,1.118H442.1c-0.593,0-1.073-0.501-1.073-1.118l-1.679-22.204   c0-0.617,0.482-1.117,1.077-1.117h39.718c0.595,0,1.074,0.5,1.074,1.117L479.541,235.736z"/>
	<path fill="#E6E7E8" d="M480.265,213.532h-39.966c-0.599,0-1.083,0.499-1.083,1.117l0.651,4.463h40.828l0.652-4.463   C481.349,214.032,480.864,213.532,480.265,213.532z"/>
	<g>
		<path fill="#414042" d="M478.465,237.833h-36.366c-1.132,0-2.054-0.94-2.054-2.098l-1.674-22.131    c-0.003-1.229,0.92-2.17,2.053-2.17h39.718c1.133,0,2.054,0.939,2.054,2.098l-1.68,22.277    C480.519,236.893,479.597,237.833,478.465,237.833z M440.424,213.393c-0.046,0-0.098,0.058-0.098,0.14l1.675,22.131    c0.002,0.16,0.059,0.213,0.098,0.213h36.366c0.045,0,0.096-0.061,0.096-0.14l1.68-22.278c-0.003-0.004-0.055-0.064-0.099-0.064    L440.424,213.393L440.424,213.393z"/>
	</g>
	<g>
		<rect x="443.509" y="220.223" fill="#414042" width="33.545" height="1.957"/>
	</g>
	<g>
		<rect x="444.563" y="224.003" fill="#414042" width="31.438" height="1.957"/>
	</g>
	<g>
		<rect x="445.992" y="227.784" fill="#414042" width="28.583" height="1.959"/>
	</g>
	<g>
		<rect x="447.218" y="231.564" fill="#414042" width="26.129" height="1.958"/>
	</g>
	<path fill="#00D4FF" d="M483.361,215.136c0,0.453-0.501,0.818-1.118,0.818h-43.918c-0.616,0-1.117-0.365-1.117-0.818v-2.895   c0-0.451,0.501-0.818,1.117-0.818h43.918c0.617,0,1.118,0.367,1.118,0.818V215.136z"/>
	<g>
		<path fill="#414042" d="M482.242,216.934h-43.918c-1.175,0-2.098-0.79-2.098-1.798v-2.895c0-1.008,0.923-1.799,2.098-1.799h43.918    c1.176,0,2.097,0.791,2.097,1.799v2.895C484.338,216.144,483.418,216.934,482.242,216.934z M438.185,214.958    c0.035,0.011,0.081,0.019,0.14,0.019h43.918c0.058,0,0.104-0.008,0.14-0.019v-2.537c-0.036-0.012-0.082-0.021-0.14-0.021h-43.918    c-0.059,0-0.104,0.009-0.14,0.021V214.958z"/>
	</g>
	<path fill="#F1F2F2" d="M472.727,211.374c0.279,0.549,0.059,1.223-0.493,1.498l-1.472,0.744c-0.552,0.274-1.224,0.055-1.502-0.498   l-8.31-16.5c-0.278-0.553-0.058-1.224,0.494-1.502l1.472-0.74c0.55-0.277,1.223-0.057,1.501,0.494L472.727,211.374z"/>
	<g>
		<path fill="#414042" d="M470.261,214.714c-0.798,0-1.517-0.442-1.875-1.155l-8.311-16.501c-0.52-1.029-0.104-2.293,0.927-2.813    l1.475-0.742c0.999-0.506,2.31-0.072,2.814,0.928l8.311,16.505c0.252,0.496,0.296,1.063,0.119,1.597    c-0.176,0.533-0.548,0.965-1.05,1.219l-1.469,0.74C470.909,214.637,470.585,214.714,470.261,214.714z M463.418,195.235    l-1.533,0.756c-0.066,0.034-0.096,0.117-0.06,0.188l8.311,16.501c0.04,0.084,0.128,0.089,0.189,0.061l1.467-0.74l-0.001-0.002    l0.063-0.185l-8.311-16.503C463.515,195.255,463.46,195.235,463.418,195.235z"/>
	</g>
	<path fill="#F1F2F2" d="M447.54,211.374c-0.281,0.549-0.059,1.223,0.493,1.498l1.472,0.744c0.55,0.274,1.224,0.055,1.5-0.498   l8.313-16.5c0.277-0.553,0.057-1.224-0.495-1.502l-1.472-0.74c-0.553-0.277-1.224-0.057-1.502,0.494L447.54,211.374z"/>
	<g>
		<path fill="#414042" d="M450.004,214.714c-0.324,0-0.649-0.077-0.938-0.223l-1.476-0.744c-0.5-0.252-0.873-0.684-1.048-1.218    c-0.176-0.532-0.131-1.102,0.124-1.601l8.307-16.499c0.506-1.003,1.813-1.435,2.815-0.929l1.471,0.74    c1.032,0.521,1.449,1.785,0.932,2.814l-8.313,16.501C451.522,214.27,450.803,214.714,450.004,214.714z M456.849,195.245    c-0.065,0-0.104,0.022-0.127,0.066l-8.309,16.502l0.001,0.002l0.059,0.184l1.531,0.758c0.015,0,0.089-0.004,0.125-0.075    l8.313-16.502c0.035-0.07,0.008-0.153-0.063-0.188l-1.469-0.738C456.887,195.247,456.867,195.245,456.849,195.245z"/>
	</g>
</g>
<g opacity="0.6">
	<g>
		<path fill="#414042" d="M493.938,176.533h-46.52v-25.896h46.52V176.533z M449.376,174.576h42.604v-21.981h-42.604V174.576z"/>
	</g>
	<g>
		<path fill="#414042" d="M486.451,172.879h-31.242v-0.979c0-1.235-0.74-2.278-1.616-2.278h-0.979V157.48h0.979    c0.876,0,1.616-1.043,1.616-2.277v-0.979h31.242v0.979c0,1.234,0.74,2.277,1.617,2.277h0.979v12.141h-0.979    c-0.876,0-1.617,1.043-1.617,2.278V172.879z M457.071,170.921h27.519c0.299-1.49,1.265-2.679,2.5-3.095v-8.55    c-1.235-0.415-2.2-1.604-2.5-3.096h-27.519c-0.298,1.49-1.263,2.681-2.499,3.096v8.55    C455.808,168.244,456.773,169.431,457.071,170.921z"/>
	</g>
	<g>
		<path fill="#414042" d="M470.677,168.754c-2.885,0-5.231-2.346-5.231-5.231c0-2.885,2.347-5.231,5.231-5.231    c2.886,0,5.232,2.347,5.232,5.231C475.909,166.408,473.564,168.754,470.677,168.754z M470.677,160.248    c-1.806,0-3.273,1.468-3.273,3.273c0,1.807,1.468,3.274,3.273,3.274c1.807,0,3.275-1.47,3.275-3.274    C473.952,161.716,472.484,160.248,470.677,160.248z"/>
	</g>
</g>
<g opacity="0.5">
	<g>
		<path fill="#414042" d="M134.311,119.735h45.509c0.796,0,1.436-0.439,1.436-0.992c0-0.551-0.64-0.996-1.436-0.996h-45.509    c-0.787,0-1.422,0.445-1.422,0.996C132.889,119.296,133.524,119.735,134.311,119.735z"/>
	</g>
	<g>
		<path fill="#414042" d="M520.849,204.897h32.931c0.576,0,1.039-0.44,1.039-0.994c0-0.548-0.463-0.994-1.039-0.994h-32.931    c-0.571,0-1.03,0.446-1.03,0.994C519.817,204.454,520.278,204.897,520.849,204.897z"/>
	</g>
	<g>
		<path fill="#414042" d="M513.711,204.897h-20.733c-0.361,0-0.652-0.44-0.652-0.994c0-0.548,0.291-0.994,0.652-0.994h20.733    c0.359,0,0.648,0.446,0.648,0.994C514.36,204.454,514.071,204.897,513.711,204.897z"/>
	</g>
	<g>
		<path fill="#414042" d="M545.226,182.819h15.135c0.863,0,1.557-0.442,1.557-0.993c0-0.549-0.693-0.995-1.557-0.995h-15.135    c-0.855,0-1.547,0.446-1.547,0.995C543.679,182.378,544.37,182.819,545.226,182.819z"/>
	</g>
	<g>
		<path fill="#414042" d="M87.455,197.42h41.512c0.723,0,1.308-0.441,1.308-0.992s-0.585-0.996-1.308-0.996H87.455    c-0.72,0-1.299,0.445-1.299,0.996S86.736,197.42,87.455,197.42z"/>
	</g>
	<g>
		<path fill="#414042" d="M99.152,206.029h30.172c0.525,0,0.951-0.441,0.951-0.992s-0.425-0.996-0.951-0.996H99.152    c-0.522,0-0.944,0.445-0.944,0.996C98.208,205.586,98.63,206.029,99.152,206.029z"/>
	</g>
	<g>
		<path fill="#414042" d="M112.36,216.122h17.369c0.304,0,0.547-0.441,0.547-0.992s-0.244-0.996-0.547-0.996H112.36    c-0.3,0-0.544,0.445-0.544,0.996S112.058,216.122,112.36,216.122z"/>
	</g>
	<g>
		<path fill="#414042" d="M405.318,94.407H387.83c-0.307,0-0.552-0.442-0.552-0.993c0-0.549,0.245-0.995,0.552-0.995h17.487    c0.302,0,0.547,0.447,0.547,0.995C405.865,93.966,405.619,94.407,405.318,94.407z"/>
	</g>
	<g>
		<path fill="#414042" d="M198.853,119.891h23.83c0.417,0,0.751-0.443,0.751-0.994c0-0.548-0.335-0.997-0.751-0.997h-23.83    c-0.412,0-0.746,0.448-0.746,0.997C198.107,119.447,198.442,119.891,198.853,119.891z"/>
	</g>
	<g>
		<path fill="#414042" d="M202.856,107.433h-18.542c-0.324,0-0.585-0.443-0.585-0.994c0-0.548,0.26-0.997,0.585-0.997h18.542    c0.321,0,0.58,0.448,0.58,0.997C203.436,106.989,203.177,107.433,202.856,107.433z"/>
	</g>
	<g>
		<path fill="#414042" d="M560.528,141.584h-10.494c-0.683,0-1.231-0.443-1.231-0.994c0-0.549,0.549-0.996,1.231-0.996h10.494    c0.675,0,1.223,0.447,1.223,0.996C561.75,141.141,561.203,141.584,560.528,141.584z"/>
	</g>
	<g>
		<path fill="#414042" d="M565.529,208.293l-4.388-4.392l4.388-4.39l4.389,4.39L565.529,208.293z M564.146,203.901l1.384,1.386    l1.383-1.386l-1.383-1.382L564.146,203.901z"/>
	</g>
	<g>
		<path fill="#414042" d="M114.854,178.562l-4.387-4.392l4.387-4.388l4.389,4.388L114.854,178.562z M113.471,174.17l1.382,1.386    l1.385-1.386l-1.385-1.382L113.471,174.17z"/>
	</g>
	<g>
		<path fill="#414042" d="M182.988,139.641l-4.387-4.395l4.387-4.387l4.387,4.387L182.988,139.641z M181.604,135.246l1.384,1.387    l1.384-1.387l-1.384-1.381L181.604,135.246z"/>
	</g>
	<g>
		<path fill="#414042" d="M461.835,86.495c-2.008,0-3.641-1.632-3.641-3.638c0-2.013,1.633-3.645,3.641-3.645s3.64,1.632,3.64,3.645    C465.475,84.863,463.843,86.495,461.835,86.495z M461.835,80.653c-1.211,0-2.203,0.987-2.203,2.204    c0,1.214,0.992,2.202,2.203,2.202c1.217,0,2.205-0.987,2.205-2.202C464.04,81.64,463.05,80.653,461.835,80.653z"/>
	</g>
	<g>
		<path fill="#414042" d="M435.783,132.513c-2.008,0-3.641-1.632-3.641-3.638c0-2.013,1.633-3.645,3.641-3.645    s3.64,1.632,3.64,3.645C439.423,130.88,437.791,132.513,435.783,132.513z M435.783,126.67c-1.211,0-2.203,0.987-2.203,2.204    c0,1.214,0.992,2.202,2.203,2.202c1.217,0,2.205-0.987,2.205-2.202C437.989,127.657,436.998,126.67,435.783,126.67z"/>
	</g>
	<g>
		<path fill="#414042" d="M434.237,167.506c-2.161,0-3.921-1.76-3.921-3.916c0-2.168,1.761-3.926,3.921-3.926    c2.162,0,3.919,1.76,3.919,3.926C438.156,165.748,436.398,167.506,434.237,167.506z M434.237,161.219    c-1.306,0-2.372,1.064-2.372,2.371s1.067,2.368,2.372,2.368c1.308,0,2.372-1.062,2.372-2.368S435.543,161.219,434.237,161.219z"/>
	</g>
	<g>
		<g>
			<path fill="#414042" d="M546.533,165.741h-26.676c-2.301,0-4.171-1.869-4.171-4.168v-29.767c0-1.011-0.821-1.83-1.829-1.83     H470.67c-0.646,0-1.171-0.525-1.171-1.172c0-0.646,0.524-1.169,1.171-1.169h43.188c2.297,0,4.168,1.869,4.168,4.171v29.767     c0,1.008,0.82,1.829,1.83,1.829h26.676c0.645,0,1.17,0.523,1.17,1.17C547.701,165.218,547.178,165.741,546.533,165.741z"/>
		</g>
		<g>
			<g>
				<polygon fill="#414042" points="539.555,173.181 538.12,171.638 545.723,164.574 538.12,157.506 539.555,155.963       548.815,164.574     "/>
			</g>
		</g>
	</g>
	<g>
		<path fill="#414042" d="M411.435,91.516h2.617v-2.733h1.89v2.733h2.634v1.776h-2.634v2.763h-1.89v-2.763h-2.617V91.516z"/>
	</g>
	<g>
		<path fill="#414042" d="M533.054,180.924h2.617v-2.733h1.89v2.733h2.634v1.773h-2.634v2.763h-1.89v-2.763h-2.617V180.924z"/>
	</g>
	<g>
		<path fill="#414042" d="M423.652,78.594h1.945v-2.032h1.406v2.032h1.959v1.321h-1.959v2.056h-1.406v-2.056h-1.945V78.594z"/>
	</g>
	<g>
		<path fill="#414042" d="M286.094,67.853h2.934v-3.061h2.118v3.061h2.95v1.992h-2.95v3.097h-2.118v-3.097h-2.934V67.853z"/>
	</g>
	<g>
		<path fill="#414042" d="M206.771,105.423h2.934v-3.061h2.119v3.061h2.95v1.991h-2.95v3.097h-2.119v-3.097h-2.934V105.423z"/>
	</g>
	<g>
		<path fill="#414042" d="M247.695,220.698h1.701v-1.773h1.229v1.773h1.71v1.155h-1.71v1.797h-1.229v-1.797h-1.701V220.698z"/>
	</g>
	<g>
		<path fill="#414042" d="M442.05,110.489h1.841v-1.92h1.331v1.92h1.853v1.251h-1.853v1.945h-1.331v-1.945h-1.841V110.489z"/>
	</g>
	<g>
		<path fill="#414042" d="M565.528,162.297h1.841v-1.92h1.331v1.92h1.853v1.251h-1.853v1.944h-1.331v-1.944h-1.841V162.297z"/>
	</g>
	<g>
		<rect x="500.77" y="230.713" fill="#414042" width="1.988" height="1.988"/>
		<rect x="504.964" y="230.713" fill="#414042" width="1.989" height="1.988"/>
		<rect x="509.156" y="230.713" fill="#414042" width="1.989" height="1.988"/>
		<rect x="513.351" y="230.713" fill="#414042" width="1.988" height="1.988"/>
		<rect x="517.545" y="230.713" fill="#414042" width="1.99" height="1.988"/>
		<rect x="521.74" y="230.713" fill="#414042" width="1.988" height="1.988"/>
		<rect x="525.933" y="230.713" fill="#414042" width="1.989" height="1.988"/>
		<rect x="530.127" y="230.713" fill="#414042" width="1.988" height="1.988"/>
		<rect x="534.323" y="230.713" fill="#414042" width="1.989" height="1.988"/>
		<rect x="538.517" y="230.713" fill="#414042" width="1.988" height="1.988"/>
	</g>
	<g>
		<rect x="375.155" y="109.938" fill="#414042" width="1.988" height="1.988"/>
		<rect x="379.348" y="109.938" fill="#414042" width="1.989" height="1.988"/>
		<rect x="383.541" y="109.938" fill="#414042" width="1.988" height="1.988"/>
		<rect x="387.736" y="109.938" fill="#414042" width="1.989" height="1.988"/>
		<rect x="391.931" y="109.938" fill="#414042" width="1.988" height="1.988"/>
		<rect x="396.124" y="109.938" fill="#414042" width="1.99" height="1.988"/>
		<rect x="400.319" y="109.938" fill="#414042" width="1.988" height="1.988"/>
		<rect x="404.512" y="109.938" fill="#414042" width="1.989" height="1.988"/>
		<rect x="408.706" y="109.938" fill="#414042" width="1.989" height="1.988"/>
		<rect x="412.902" y="109.938" fill="#414042" width="1.988" height="1.988"/>
	</g>
	<g>
		<rect x="444.612" y="127.877" fill="#414042" width="1.99" height="1.988"/>
		<rect x="448.806" y="127.877" fill="#414042" width="1.988" height="1.988"/>
		<rect x="452.999" y="127.877" fill="#414042" width="1.989" height="1.988"/>
		<rect x="457.194" y="127.877" fill="#414042" width="1.989" height="1.988"/>
		<rect x="461.389" y="127.877" fill="#414042" width="1.988" height="1.988"/>
	</g>
	<g>
		<rect x="280.04" y="93.798" fill="#414042" width="1.988" height="1.988"/>
		<rect x="284.233" y="93.798" fill="#414042" width="1.989" height="1.988"/>
		<rect x="288.427" y="93.798" fill="#414042" width="1.988" height="1.988"/>
		<rect x="292.621" y="93.798" fill="#414042" width="1.989" height="1.988"/>
		<rect x="296.816" y="93.798" fill="#414042" width="1.988" height="1.988"/>
		<rect x="301.01" y="93.798" fill="#414042" width="1.99" height="1.988"/>
	</g>
	<g>
		<rect x="102.273" y="148.398" fill="#414042" width="1.99" height="1.99"/>
		<rect x="106.467" y="148.398" fill="#414042" width="1.989" height="1.99"/>
		<rect x="110.66" y="148.398" fill="#414042" width="1.989" height="1.99"/>
		<rect x="114.854" y="148.398" fill="#414042" width="1.989" height="1.99"/>
		<rect x="119.05" y="148.398" fill="#414042" width="1.989" height="1.99"/>
		<rect x="123.243" y="148.398" fill="#414042" width="1.99" height="1.99"/>
		<rect x="127.437" y="148.398" fill="#414042" width="1.989" height="1.99"/>
		<rect x="131.631" y="148.398" fill="#414042" width="1.989" height="1.99"/>
		<rect x="135.825" y="148.398" fill="#414042" width="1.988" height="1.99"/>
		<rect x="140.019" y="148.398" fill="#414042" width="1.99" height="1.99"/>
	</g>
	<g>
		<g>
			<path fill="#414042" d="M250.025,102.49c-4.774,0-8.657-3.884-8.657-8.657c0-4.775,3.883-8.658,8.657-8.658     c4.774,0,8.659,3.883,8.659,8.658C258.684,98.606,254.799,102.49,250.025,102.49z M250.025,86.486     c-4.051,0-7.345,3.296-7.345,7.347c0,4.051,3.294,7.346,7.345,7.346c4.052,0,7.347-3.296,7.347-7.346     C257.372,89.782,254.076,86.486,250.025,86.486z"/>
		</g>
		<g>
			<path fill="#414042" d="M246.009,91.754c0-0.325,0.045-0.603,0.141-0.833c0.094-0.23,0.223-0.422,0.389-0.574     c0.166-0.151,0.367-0.261,0.602-0.33c0.235-0.068,0.488-0.103,0.762-0.103c0.273,0,0.527,0.032,0.757,0.098     c0.232,0.065,0.432,0.17,0.601,0.314c0.17,0.144,0.301,0.333,0.395,0.568c0.094,0.234,0.146,0.521,0.152,0.86     c-0.006,0.338-0.058,0.625-0.152,0.86c-0.094,0.235-0.224,0.424-0.395,0.568c-0.17,0.145-0.37,0.249-0.601,0.314     c-0.23,0.064-0.484,0.097-0.757,0.097s-0.527-0.033-0.762-0.097c-0.235-0.066-0.436-0.17-0.602-0.314s-0.294-0.334-0.389-0.568     C246.054,92.38,246.009,92.092,246.009,91.754z M252.783,89.893l0.791,0.713l-6.235,7.165l-0.79-0.747L252.783,89.893z      M247.264,91.754c0,0.62,0.211,0.931,0.637,0.931c0.224,0,0.384-0.066,0.481-0.201c0.098-0.133,0.15-0.377,0.157-0.73     c-0.007-0.346-0.059-0.588-0.157-0.725c-0.097-0.137-0.257-0.206-0.481-0.206c-0.224,0-0.384,0.069-0.486,0.206     C247.315,91.166,247.264,91.408,247.264,91.754z M250.402,95.77c0-0.325,0.047-0.602,0.14-0.833     c0.094-0.23,0.224-0.422,0.39-0.573c0.165-0.152,0.367-0.262,0.601-0.33c0.234-0.069,0.489-0.104,0.764-0.104     s0.526,0.033,0.756,0.097c0.232,0.065,0.433,0.17,0.601,0.315c0.169,0.144,0.3,0.334,0.395,0.568     c0.094,0.234,0.146,0.521,0.153,0.86c-0.007,0.339-0.059,0.626-0.153,0.861c-0.095,0.235-0.226,0.425-0.395,0.568     c-0.168,0.145-0.37,0.25-0.601,0.313c-0.23,0.065-0.482,0.098-0.756,0.098c-0.274,0-0.529-0.033-0.764-0.098     c-0.234-0.064-0.436-0.168-0.601-0.313c-0.166-0.144-0.296-0.333-0.39-0.568C250.449,96.395,250.402,96.108,250.402,95.77z      M251.656,95.77c0,0.62,0.214,0.931,0.64,0.931c0.223,0,0.384-0.066,0.479-0.2c0.1-0.133,0.151-0.376,0.159-0.73     c-0.008-0.346-0.059-0.588-0.159-0.726c-0.095-0.137-0.256-0.206-0.479-0.206c-0.224,0-0.386,0.069-0.487,0.206     C251.709,95.18,251.656,95.423,251.656,95.77z"/>
		</g>
		<g>
			<rect x="249.369" y="79.977" fill="#414042" width="1.312" height="4.436"/>
		</g>
		<g>
			
				<rect x="253.34" y="80.681" transform="matrix(-0.9402 -0.3407 0.3407 -0.9402 464.5522 247.3732)" fill="#414042" width="1.311" height="4.435"/>
		</g>
		<g>
			
				<rect x="256.828" y="82.686" transform="matrix(-0.7667 -0.642 0.642 -0.7667 400.3872 315.306)" fill="#414042" width="1.312" height="4.434"/>
		</g>
		<g>
			
				<rect x="259.427" y="85.76" transform="matrix(-0.501 -0.8654 0.8654 -0.501 314.2514 357.1401)" fill="#414042" width="1.312" height="4.434"/>
		</g>
		<g>
			
				<rect x="260.831" y="89.573" transform="matrix(-0.176 -0.9844 0.9844 -0.176 217.1611 365.3522)" fill="#414042" width="1.312" height="4.435"/>
		</g>
		<g>
			
				<rect x="259.262" y="95.161" transform="matrix(-0.9853 -0.1707 0.1707 -0.9853 502.7706 234.8524)" fill="#414042" width="4.435" height="1.311"/>
		</g>
		<g>
			
				<rect x="257.914" y="98.958" transform="matrix(-0.868 -0.4966 0.4966 -0.868 436.4579 315.2533)" fill="#414042" width="4.436" height="1.311"/>
		</g>
		<g>
			
				<rect x="255.337" y="102.057" transform="matrix(-0.6462 -0.7632 0.7632 -0.6462 345.5862 365.6472)" fill="#414042" width="4.435" height="1.312"/>
		</g>
		<g>
			
				<rect x="251.849" y="104.101" transform="matrix(-0.3469 -0.9379 0.9379 -0.3469 243.944 379.3861)" fill="#414042" width="4.436" height="1.311"/>
		</g>
		<g>
			
				<rect x="247.886" y="104.822" transform="matrix(-0.0059 -1 1 -0.0059 146.1149 356.2038)" fill="#414042" width="4.435" height="1.312"/>
		</g>
		<g>
			
				<rect x="245.46" y="102.562" transform="matrix(-0.9417 -0.3365 0.3365 -0.9417 442.619 286.2653)" fill="#414042" width="1.31" height="4.434"/>
		</g>
		<g>
			
				<rect x="241.94" y="100.568" transform="matrix(-0.7706 -0.6374 0.6374 -0.7706 364.0214 336.6091)" fill="#414042" width="1.312" height="4.435"/>
		</g>
		<g>
			
				<rect x="239.325" y="97.497" transform="matrix(-0.5068 -0.8621 0.8621 -0.5068 275.6455 357.1285)" fill="#414042" width="1.311" height="4.434"/>
		</g>
		<g>
			
				<rect x="237.933" y="93.734" transform="matrix(-0.1825 -0.9832 0.9832 -0.1825 187.7886 348.0435)" fill="#414042" width="1.311" height="4.435"/>
		</g>
		<g>
			
				<rect x="236.321" y="91.246" transform="matrix(-0.9864 -0.1646 0.1646 -0.9864 458.6942 221.8175)" fill="#414042" width="4.435" height="1.312"/>
		</g>
		<g>
			
				<rect x="237.674" y="87.446" transform="matrix(-0.8708 -0.4916 0.4916 -0.8708 405.4863 282.7493)" fill="#414042" width="4.434" height="1.313"/>
		</g>
		<g>
			
				<rect x="240.24" y="84.331" transform="matrix(-0.6507 -0.7594 0.7594 -0.6507 335.6783 324.3978)" fill="#414042" width="4.434" height="1.311"/>
		</g>
		<g>
			
				<rect x="243.716" y="82.286" transform="matrix(-0.3523 -0.9359 0.9359 -0.3523 254.9454 342.3271)" fill="#414042" width="4.433" height="1.312"/>
		</g>
	</g>
</g>
<g>
	<g>
		<path fill="#F1F2F2" d="M175.671,237.19c0,0,0.6-0.91,1.335-2.04c0.733-1.125,1.332-3.236,1.332-4.708v-8.872h24.128v8.872    c0,1.472,0.594,3.583,1.334,4.708l1.332,2.04H175.671z"/>
		<rect x="178.338" y="221.57" fill="#D1D3D4" width="24.128" height="6.706"/>
		<g>
			<path fill="#414042" stroke="#414042" stroke-miterlimit="10" d="M206.229,237.785h-31.66l0.606-0.921     c0-0.001,0.599-0.91,1.332-2.037c0.67-1.028,1.236-3.036,1.236-4.385v-9.464h25.315v9.464c0,1.355,0.566,3.363,1.236,4.382     L206.229,237.785z M176.77,236.597h27.266l-0.734-1.122c-0.801-1.22-1.43-3.43-1.43-5.032v-8.278h-22.939v8.278     c0,1.593-0.629,3.803-1.431,5.032C177.231,235.89,176.981,236.274,176.77,236.597z"/>
		</g>
		<path fill="#FFFFFF" d="M237.729,224.066h-94.885c-1.467,0-2.663-1.194-2.663-2.668v-61.651c0-1.473,1.195-2.667,2.663-2.667    h94.885c1.473,0,2.666,1.194,2.666,2.667v61.651C240.395,222.872,239.202,224.066,237.729,224.066z"/>
		<g>
			<path fill="#414042" stroke="#414042" stroke-miterlimit="10" d="M237.729,224.66h-94.885c-1.794,0-3.256-1.463-3.256-3.262     v-61.651c0-1.799,1.46-3.261,3.256-3.261h94.885c1.797,0,3.26,1.463,3.26,3.261v61.651     C240.989,223.197,239.526,224.66,237.729,224.66z M142.844,157.674c-1.14,0-2.068,0.93-2.068,2.073v61.651     c0,1.144,0.928,2.074,2.068,2.074h94.885c1.143,0,2.072-0.931,2.072-2.074v-61.651c0-1.144-0.93-2.073-2.072-2.073H142.844     L142.844,157.674z"/>
		</g>
		<rect x="145.511" y="162.415" fill="#00D4FF" width="89.556" height="50.88"/>
		<g>
			<path fill="#414042" d="M235.659,213.889h-90.741v-52.067h90.741V213.889z M146.106,212.701h88.366v-49.692h-88.366V212.701z"/>
		</g>
	</g>
	<g>
		<polygon opacity="0.2" fill="#231F20" points="230.307,162.415 150.271,162.415 153.779,213.072     226.798,213.072   "/>
		<rect x="153.779" y="151.391" fill="#FFFFFF" width="73.021" height="61.682"/>
		<rect x="153.779" y="151.391" fill="#E6E7E8" width="73.021" height="6.261"/>
		<g>
			<path fill="#414042" d="M227.391,213.666h-74.206v-62.868h74.208v62.868H227.391z M154.373,212.479h71.831v-60.494h-71.831     V212.479z"/>
		</g>
		<circle fill="#FFFFFF" cx="159.708" cy="154.522" r="0.904"/>
		<circle fill="#FFFFFF" cx="163.991" cy="154.522" r="0.903"/>
		<circle fill="#FFFFFF" cx="168.273" cy="154.522" r="0.903"/>
		<rect x="160.445" y="186.945" fill="#E6E7E8" width="15.878" height="15.879"/>
		<polygon fill="#E6E7E8" points="159.434,173.109 151.713,173.109 153.779,157.988 161.081,157.988   "/>
		<polygon fill="#66E5FF" points="167.156,173.109 159.434,173.109 161.081,157.988 168.384,157.988   "/>
		<polygon fill="#E6E7E8" points="174.877,173.109 167.156,173.109 168.384,157.988 175.685,157.988   "/>
		<polygon fill="#66E5FF" points="182.598,173.109 174.877,173.109 175.685,157.988 182.987,157.988   "/>
		<polygon fill="#E6E7E8" points="190.321,173.109 182.598,173.109 182.987,157.988 190.29,157.988   "/>
		<polygon fill="#66E5FF" points="198.042,173.109 190.321,173.109 190.29,157.988 197.593,157.988   "/>
		<polygon fill="#E6E7E8" points="205.762,173.109 198.042,173.109 197.593,157.988 204.893,157.988   "/>
		<polygon fill="#66E5FF" points="213.484,173.109 205.762,173.109 204.893,157.988 212.196,157.988   "/>
		<polygon fill="#66E5FF" points="228.927,173.109 221.206,173.109 219.497,157.988 226.8,157.988   "/>
		<path fill="#F1F2F2" d="M159.258,172.834v4.575c0,1.612-1.707,2.92-3.814,2.92l0,0c-2.106,0-3.813-1.308-3.813-2.92v-4.575    H159.258z"/>
		<g>
			<path fill="#414042" d="M155.444,180.923c-2.43,0-4.407-1.576-4.407-3.514v-4.575h1.188v4.575c0,1.282,1.445,2.326,3.22,2.326     c1.776,0,3.22-1.044,3.22-2.326v-4.575h1.188v4.575C159.851,179.347,157.874,180.923,155.444,180.923z"/>
		</g>
		<path fill="#00D4FF" d="M166.882,172.834v4.575c0,1.612-1.708,2.92-3.814,2.92l0,0c-2.106,0-3.813-1.308-3.813-2.92v-4.575    H166.882z"/>
		<g>
			<path fill="#414042" d="M163.2,180.923c-2.43,0-4.407-1.576-4.407-3.514v-4.575h1.188v4.575c0,1.282,1.444,2.326,3.22,2.326     c1.776,0,3.22-1.044,3.22-2.326v-4.575h1.188v4.575C167.608,179.347,165.63,180.923,163.2,180.923z"/>
		</g>
		<path fill="#F1F2F2" d="M174.77,172.834v4.575c0,1.612-1.708,2.92-3.814,2.92l0,0c-2.105,0-3.814-1.308-3.814-2.92v-4.575H174.77z    "/>
		<g>
			<path fill="#414042" d="M170.926,180.923c-2.43,0-4.407-1.576-4.407-3.514v-4.575h1.187v4.575c0,1.282,1.445,2.326,3.221,2.326     s3.221-1.044,3.221-2.326v-4.575h1.188v4.575C175.333,179.347,173.356,180.923,170.926,180.923z"/>
		</g>
		<path fill="#00D4FF" d="M182.526,172.834v4.575c0,1.612-1.708,2.92-3.814,2.92l0,0c-2.105,0-3.813-1.308-3.813-2.92v-4.575    H182.526z"/>
		<g>
			<path fill="#414042" d="M178.667,180.923c-2.431,0-4.408-1.576-4.408-3.514v-4.575h1.188v4.575c0,1.282,1.444,2.326,3.221,2.326     c1.775,0,3.219-1.044,3.219-2.326v-4.575h1.188v4.575C183.074,179.347,181.096,180.923,178.667,180.923z"/>
		</g>
		<path fill="#F1F2F2" d="M190.282,172.834v4.575c0,1.612-1.708,2.92-3.814,2.92l0,0c-2.106,0-3.813-1.308-3.813-2.92v-4.575    H190.282z"/>
		<g>
			<path fill="#414042" d="M186.407,180.923c-2.43,0-4.406-1.576-4.406-3.514v-4.575h1.188v4.575c0,1.282,1.443,2.326,3.219,2.326     c1.777,0,3.222-1.044,3.222-2.326v-4.575h1.188v4.575C190.816,179.347,188.838,180.923,186.407,180.923z"/>
		</g>
		<path fill="#00D4FF" d="M198.038,172.834v4.575c0,1.612-1.707,2.92-3.814,2.92l0,0c-2.105,0-3.813-1.308-3.813-2.92v-4.575    H198.038z"/>
		<g>
			<path fill="#414042" d="M194.223,180.923c-2.43,0-4.406-1.576-4.406-3.514v-5.169h8.814v5.169     C198.631,179.347,196.655,180.923,194.223,180.923z M191.005,173.428v3.981c0,1.282,1.443,2.326,3.219,2.326     c1.776,0,3.221-1.044,3.221-2.326v-3.981H191.005z"/>
		</g>
		<path fill="#F1F2F2" d="M205.794,172.834v4.575c0,1.612-1.707,2.92-3.813,2.92l0,0c-2.106,0-3.813-1.308-3.813-2.92v-4.575    H205.794z"/>
		<g>
			<path fill="#414042" d="M201.889,180.923c-2.43,0-4.406-1.576-4.406-3.514v-4.575h1.188v4.575c0,1.282,1.443,2.326,3.219,2.326     c1.776,0,3.221-1.044,3.221-2.326v-4.575h1.188v4.575C206.298,179.347,204.319,180.923,201.889,180.923z"/>
		</g>
		<path fill="#00D4FF" d="M213.55,172.834v4.575c0,1.612-1.707,2.92-3.814,2.92l0,0c-2.105,0-3.812-1.308-3.812-2.92v-4.575H213.55z    "/>
		<g>
			<path fill="#414042" d="M209.735,180.923c-2.43,0-4.406-1.576-4.406-3.514v-5.169h8.814v5.169     C214.143,179.347,212.167,180.923,209.735,180.923z M206.516,173.428v3.981c0,1.282,1.444,2.326,3.219,2.326     c1.777,0,3.221-1.044,3.221-2.326v-3.981H206.516z"/>
		</g>
		<path fill="#F1F2F2" d="M221.305,172.834v4.575c0,1.612-1.708,2.92-3.814,2.92l0,0c-2.105,0-3.813-1.308-3.813-2.92v-4.575    H221.305z"/>
		<g>
			<path fill="#414042" d="M217.372,180.923c-2.431,0-4.407-1.576-4.407-3.514v-4.575h1.187v4.575c0,1.282,1.445,2.326,3.221,2.326     s3.221-1.044,3.221-2.326v-4.575h1.188v4.575C221.778,179.347,219.802,180.923,217.372,180.923z"/>
		</g>
		<path fill="#00D4FF" d="M229.061,172.834v4.575c0,1.612-1.707,2.92-3.814,2.92l0,0c-2.105,0-3.813-1.308-3.813-2.92v-4.575    H229.061z"/>
		<g>
			<path fill="#414042" d="M225.112,180.923c-2.43,0-4.406-1.576-4.406-3.514v-4.575h1.188v4.575c0,1.282,1.443,2.326,3.219,2.326     s3.221-1.044,3.221-2.326v-4.575h1.188v4.575C229.52,179.347,227.542,180.923,225.112,180.923z"/>
		</g>
		<polygon fill="#E6E7E8" points="221.206,173.109 213.484,173.109 212.196,157.988 219.497,157.988   "/>
		<g>
			<path fill="#414042" d="M159.967,173.703h-8.934l2.229-16.309h8.482L159.967,173.703z M152.393,172.516h6.508l1.518-13.935     h-6.123L152.393,172.516z"/>
		</g>
		<g>
			<path fill="#414042" d="M167.703,173.703h-8.931l1.776-16.309h8.479L167.703,173.703z M160.095,172.516h6.512l1.131-13.935     h-6.125L160.095,172.516z"/>
		</g>
		<g>
			<path fill="#414042" d="M175.44,173.703h-8.928l1.325-16.309h8.475L175.44,173.703z M167.8,172.516h6.515l0.745-13.935h-6.128     L167.8,172.516z"/>
		</g>
		<g>
			<path fill="#414042" d="M183.177,173.703h-8.926l0.872-16.309h8.474L183.177,173.703z M175.503,172.516h6.518l0.357-13.935     h-6.129L175.503,172.516z"/>
		</g>
		<g>
			<path fill="#414042" d="M190.917,173.703h-8.928l0.42-16.309h8.473L190.917,173.703z M183.208,172.516h6.52l-0.029-13.935h-6.131     L183.208,172.516z"/>
		</g>
		<g>
			<path fill="#414042" d="M198.653,173.703h-8.924l-0.033-16.309h8.473L198.653,173.703z M190.914,172.516h6.516l-0.415-13.935     h-6.13L190.914,172.516z"/>
		</g>
		<g>
			<path fill="#414042" d="M206.391,173.703h-8.926l-0.486-16.309h8.475L206.391,173.703z M198.617,172.516h6.517l-0.801-13.935     h-6.13L198.617,172.516z"/>
		</g>
		<g>
			<path fill="#414042" d="M214.13,173.703h-8.928l-0.938-16.309h8.475L214.13,173.703z M206.323,172.516h6.514l-1.188-13.935     h-6.127L206.323,172.516z"/>
		</g>
		<g>
			<path fill="#414042" d="M229.61,173.703h-8.936l-1.842-16.309h8.482L229.61,173.703z M221.735,172.516h6.508l-1.961-13.935     h-6.119L221.735,172.516z"/>
		</g>
		<g>
			<path fill="#414042" d="M221.87,173.703h-8.932l-1.39-16.309h8.479L221.87,173.703z M214.028,172.516h6.512l-1.573-13.935h-6.126     L214.028,172.516z"/>
		</g>
		<g>
			<g>
				<rect x="181.541" y="188.544" fill="#6D6E71" width="21.805" height="1.584"/>
			</g>
			<g>
				<rect x="181.541" y="194.292" fill="#6D6E71" width="19.521" height="1.187"/>
			</g>
			<g>
				<rect x="181.541" y="197.238" fill="#6D6E71" width="11.526" height="1.188"/>
			</g>
			<g>
				<rect x="195.479" y="197.238" fill="#6D6E71" width="15.352" height="1.188"/>
			</g>
			<g>
				<rect x="181.541" y="200.184" fill="#6D6E71" width="19.521" height="1.188"/>
			</g>
			<g>
				<rect x="202.249" y="194.292" fill="#6D6E71" width="5.168" height="1.187"/>
			</g>
			<g>
				<rect x="208.582" y="194.292" fill="#6D6E71" width="10.915" height="1.187"/>
			</g>
		</g>
	</g>
	<g>
		<circle fill="#00D4FF" cx="169.018" cy="198.165" r="4.48"/>
		<g>
			<path fill="#414042" d="M190.62,219.572c-0.25,0-0.502-0.096-0.693-0.287l-11.027-11.025c-0.381-0.382-0.381-1.002,0-1.384     c0.383-0.382,1.002-0.382,1.385,0l11.025,11.026c0.385,0.381,0.385,1.002,0,1.383C191.12,219.477,190.87,219.572,190.62,219.572z     "/>
		</g>
		<g>
			<path fill="#F1F2F2" d="M169.356,198.305l8.58,21.514c0.18,0.717,0.555,0.744,0.838,0.063l3.336-8.044     c0.143-0.343,0.408-0.709,0.725-1.024l-13.33-13.332C169.329,197.658,169.266,197.945,169.356,198.305z"/>
			<path fill="#FFFFFF" d="M191.843,205.912l-21.514-8.58c-0.357-0.09-0.648-0.027-0.824,0.148l13.33,13.332     c0.316-0.318,0.686-0.584,1.025-0.728l8.043-3.335C192.589,206.467,192.559,206.092,191.843,205.912z"/>
		</g>
		<g>
			<path fill="#414042" d="M178.331,221.354c-0.305,0-1.049-0.127-1.344-1.296l-8.58-21.517c-0.152-0.611-0.053-1.182,0.281-1.608     c0.414-0.528,1.119-0.741,1.879-0.551l0.125,0.041l21.459,8.558c1.041,0.289,1.203,0.961,1.225,1.24     c0.02,0.286-0.045,0.998-1.098,1.434l-8.043,3.334c-0.441,0.186-1.035,0.779-1.221,1.225l-3.336,8.043     C179.282,221.211,178.665,221.354,178.331,221.354z M170.471,198.441l7.902,19.834l2.832-6.813     c0.381-0.916,1.359-1.896,2.275-2.28l6.822-2.828L170.471,198.441z"/>
		</g>
		<g>
			<rect x="168.04" y="184.295" fill="#414042" width="1.957" height="6.347"/>
		</g>
		<g>
			
				<rect x="173.278" y="185.662" transform="matrix(-0.8718 -0.4898 0.4898 -0.8718 233.6913 438.8197)" fill="#414042" width="1.958" height="6.347"/>
		</g>
		<g>
			
				<rect x="177.184" y="189.424" transform="matrix(-0.5209 -0.8536 0.8536 -0.5209 106.5531 445.001)" fill="#414042" width="1.957" height="6.347"/>
		</g>
		<g>
			
				<rect x="163.513" y="204.674" transform="matrix(-0.9056 -0.4241 0.4241 -0.9056 225.3061 465.8397)" fill="#414042" width="1.957" height="6.348"/>
		</g>
		<g>
			
				<rect x="159.353" y="201.206" transform="matrix(-0.5819 -0.8133 0.8133 -0.5819 87.4151 453.6983)" fill="#414042" width="1.959" height="6.347"/>
		</g>
		<g>
			
				<rect x="157.406" y="196.16" transform="matrix(-0.1093 -0.994 0.994 -0.1093 -22.4452 378.5522)" fill="#414042" width="1.957" height="6.346"/>
		</g>
		<g>
			
				<rect x="155.981" y="193.009" transform="matrix(-0.9204 -0.391 0.391 -0.9204 229.7989 434.7591)" fill="#414042" width="6.347" height="1.957"/>
		</g>
		<g>
			
				<rect x="159.301" y="188.724" transform="matrix(-0.6113 -0.7914 0.7914 -0.6113 111.6679 434.2502)" fill="#414042" width="6.345" height="1.958"/>
		</g>
	</g>
</g>
<g>
	<path fill="#414042" d="M114.897,238.779H554.04c0.863,0,1.557-0.442,1.557-0.993c0-0.549-0.693-0.995-1.557-0.995H114.897   c-0.855,0-1.547,0.446-1.547,0.995C113.35,238.338,114.042,238.779,114.897,238.779z"/>
</g>
<g>
	<g>
		<g>
			<g>
				<path fill="#FFFFFF" stroke="#414042" stroke-width="2.8346" stroke-miterlimit="10" d="M263.561,219.675      c-5.264,0-9.546-4.281-9.546-9.545v-69.725c0-5.263,4.282-9.546,9.546-9.546h118.084c5.265,0,9.548,4.281,9.548,9.546v69.725      c0,5.264-4.283,9.545-9.548,9.545H263.561z"/>
			</g>
		</g>
		<g>
			<path fill="#FFFFFF" d="M364.378,194.214c3.698,0,6.698,3,6.698,6.698c0,3.702-3,6.7-6.698,6.7c-3.702,0-6.701-2.998-6.701-6.7     C357.677,197.214,360.676,194.214,364.378,194.214z"/>
		</g>
		<g>
			<circle fill="#08B3BD" cx="373.949" cy="200.913" r="6.699"/>
		</g>
		<g opacity="0.5">
			<path fill="#414042" d="M309.405,193.97h-42.966c-0.222,0-0.4,0.179-0.4,0.399v5.205c0,0.223,0.178,0.399,0.4,0.399h42.966     c0.221,0,0.4-0.177,0.4-0.399v-5.205C309.805,194.148,309.625,193.97,309.405,193.97z"/>
			<path fill="#414042" d="M332.415,194.113h-17.651c-0.143,0-0.256,0.114-0.256,0.257v5.207c0,0.141,0.114,0.256,0.256,0.256     h17.651c0.143,0,0.257-0.115,0.257-0.256v-5.207C332.672,194.228,332.558,194.113,332.415,194.113z"/>
			<path fill="#414042" d="M276.401,202.284h-9.962c-0.108,0-0.194,0.087-0.194,0.192v5.207c0,0.106,0.088,0.193,0.194,0.193h9.962     c0.105,0,0.191-0.087,0.191-0.193v-5.207C276.594,202.371,276.506,202.284,276.401,202.284z"/>
			<path fill="#414042" d="M289.902,202.284h-9.963c-0.107,0-0.192,0.087-0.192,0.192v5.207c0,0.106,0.085,0.193,0.192,0.193h9.963     c0.108,0,0.193-0.087,0.193-0.193v-5.207C290.096,202.371,290.01,202.284,289.902,202.284z"/>
		</g>
		<g opacity="0.8">
			<path fill="#414042" d="M291.254,177.821h-24.816c-0.222,0-0.4,0.161-0.4,0.355v7.979c0,0.195,0.178,0.354,0.4,0.354h24.816     c0.22,0,0.401-0.159,0.401-0.354v-7.979C291.655,177.982,291.473,177.821,291.254,177.821z"/>
			<path fill="#414042" d="M320.711,177.821H295.89c-0.222,0-0.4,0.161-0.4,0.355v7.979c0,0.195,0.181,0.354,0.4,0.354h24.821     c0.222,0,0.401-0.159,0.401-0.354v-7.979C321.113,177.982,320.933,177.821,320.711,177.821z"/>
			<path fill="#414042" d="M350.872,177.821h-24.815c-0.22,0-0.402,0.161-0.402,0.355v7.979c0,0.195,0.183,0.354,0.402,0.354h24.815     c0.221,0,0.401-0.159,0.401-0.354v-7.979C351.274,177.982,351.093,177.821,350.872,177.821z"/>
			<path fill="#414042" d="M380.247,177.821h-24.814c-0.223,0-0.402,0.161-0.402,0.355v7.979c0,0.195,0.18,0.354,0.402,0.354h24.814     c0.221,0,0.4-0.159,0.4-0.354v-7.979C380.65,177.982,380.468,177.821,380.247,177.821z"/>
		</g>
		<g>
			<path fill="#C5D2D8" d="M293.641,168.103c0,1.919-1.555,3.476-3.475,3.476h-20.254c-1.919,0-3.475-1.557-3.475-3.476v-12.325     c0-1.922,1.554-3.476,3.475-3.476h20.254c1.917,0,3.474,1.554,3.474,3.476L293.641,168.103L293.641,168.103z"/>
		</g>
		<g opacity="0.1">
			
				<line fill="none" stroke="#000000" stroke-width="0.9929" stroke-miterlimit="10" x1="273.76" y1="152.302" x2="273.76" y2="171.578"/>
			
				<line fill="none" stroke="#000000" stroke-width="0.9929" stroke-miterlimit="10" x1="286.194" y1="152.302" x2="286.194" y2="171.578"/>
			
				<line fill="none" stroke="#000000" stroke-width="0.9929" stroke-miterlimit="10" x1="266.438" y1="158.421" x2="273.76" y2="158.421"/>
			
				<line fill="none" stroke="#000000" stroke-width="0.9929" stroke-miterlimit="10" x1="266.438" y1="166.054" x2="273.76" y2="166.054"/>
			
				<line fill="none" stroke="#000000" stroke-width="0.9929" stroke-miterlimit="10" x1="286.318" y1="166.054" x2="293.641" y2="166.054"/>
			
				<line fill="none" stroke="#000000" stroke-width="0.9929" stroke-miterlimit="10" x1="286.318" y1="158.421" x2="293.641" y2="158.421"/>
		</g>
	</g>
	<g>
		<g>
			<g>
				<path fill="#00D4FF" stroke="#414042" stroke-width="2.8346" stroke-miterlimit="10" d="M287.982,241.381      c-5.262,0-9.544-4.282-9.544-9.544v-69.728c0-5.264,4.282-9.546,9.544-9.546h118.086c5.264,0,9.547,4.282,9.547,9.546v69.728      c0,5.262-4.283,9.544-9.547,9.544H287.982z"/>
			</g>
		</g>
		<g opacity="0.5">
			<rect x="278.847" y="164.677" fill="#414042" width="135.738" height="20.535"/>
		</g>
		<g>
			<rect x="279.603" y="184.769" fill="#414042" width="134.982" height="3.483"/>
		</g>
		<g>
			<rect x="279.603" y="162.935" fill="#414042" width="134.982" height="3.483"/>
		</g>
		<g opacity="0.5">
			<g>
				<rect x="290.367" y="216.598" fill="#414042" width="34.254" height="2.857"/>
			</g>
			<g>
				<rect x="326.555" y="216.598" fill="#414042" width="10.885" height="2.857"/>
			</g>
			<g>
				<rect x="290.367" y="226.423" fill="#414042" width="41.123" height="2.857"/>
			</g>
			<g>
				<rect x="333.811" y="226.423" fill="#414042" width="13.066" height="2.857"/>
			</g>
			<g>
				<rect x="339" y="216.598" fill="#414042" width="18.339" height="2.857"/>
			</g>
			<g>
				<rect x="290.367" y="221.456" fill="#414042" width="26.834" height="2.858"/>
			</g>
			<g>
				<rect x="319.533" y="221.456" fill="#414042" width="8.529" height="2.858"/>
			</g>
			<g>
				<rect x="329.695" y="221.456" fill="#414042" width="14.366" height="2.858"/>
			</g>
		</g>
		<rect x="290.367" y="194.302" fill="#FFFFFF" width="98.189" height="15.616"/>
		<g>
			<rect x="387.521" y="195.022" fill="#FFAA2E" width="20.751" height="14.175"/>
			<path fill="#FFFFFF" d="M407.551,195.743v12.733h-19.31v-12.733H407.551 M408.992,194.302H386.8v15.616h22.192V194.302     L408.992,194.302z"/>
		</g>
		<g>
			<rect x="391.648" y="199.636" fill="#414042" width="3.374" height="4.95"/>
		</g>
		<g>
			<rect x="396.574" y="199.636" fill="#414042" width="3.372" height="4.95"/>
		</g>
		<g>
			<rect x="401.24" y="199.636" fill="#414042" width="3.373" height="4.95"/>
		</g>
	</g>
</g>
</svg>
